<svg width="188" height="41" viewBox="0 0 188 41" xmlns="http://www.w3.org/2000/svg">
    <g fill="none" fill-rule="evenodd">
        <g fill="#FFF" fill-rule="nonzero">
            <path d="M57.295 18.283h4.176a19.8 19.8 0 0 0-.16-2.422 6.38 6.38 0 0 0-.797-2.407c-.425-.744-1.068-1.358-1.929-1.841-.86-.483-2.034-.725-3.523-.725-1.566 0-2.813.266-3.741.797a5.357 5.357 0 0 0-2.131 2.219c-.493.947-.813 2.083-.957 3.407a39.991 39.991 0 0 0-.218 4.336c0 1.585.072 3.035.218 4.35.145 1.315.464 2.446.957 3.393a5.087 5.087 0 0 0 2.131 2.175c.928.503 2.175.754 3.741.754 1.373 0 2.49-.213 3.35-.638.86-.425 1.527-1.015 2-1.769.474-.754.798-1.634.972-2.639.174-1.005.261-2.069.261-3.19h-4.176c0 1.121-.068 2.025-.203 2.712-.135.686-.319 1.218-.551 1.594-.232.378-.508.629-.827.755a2.783 2.783 0 0 1-1.029.188c-.445 0-.836-.092-1.175-.276-.338-.183-.618-.54-.84-1.073-.223-.531-.387-1.28-.494-2.247-.106-.967-.159-2.233-.159-3.799 0-1.47.039-2.712.116-3.727.077-1.015.213-1.836.406-2.465.193-.628.46-1.082.797-1.362.339-.28.769-.421 1.291-.421.947 0 1.6.343 1.957 1.03.358.686.537 1.783.537 3.291zM63.752 11.062v3.422h4.002v-3.422h-4.002zm0 5.336V32h4.002V16.398h-4.002zM70.267 16.398V32h4.002v-9.367c0-.522.087-.962.261-1.32.174-.357.406-.647.696-.87.29-.222.609-.381.957-.478a3.885 3.885 0 0 1 1.044-.145 13.111 13.111 0 0 1 1.247.058V16.05a4.731 4.731 0 0 0-.725-.058c-.831 0-1.537.227-2.117.681-.58.455-1.073 1.059-1.479 1.813h-.058v-2.088h-3.828zM87.135 22.024h3.828c0-1.856-.469-3.325-1.406-4.408-.938-1.083-2.335-1.624-4.191-1.624-.928 0-1.779.126-2.552.377a4.516 4.516 0 0 0-2.001 1.32c-.56.628-.996 1.469-1.305 2.523-.31 1.053-.464 2.382-.464 3.987 0 1.566.126 2.876.377 3.93.251 1.053.623 1.894 1.116 2.522a3.81 3.81 0 0 0 1.856 1.305c.745.242 1.62.363 2.625.363 2.127 0 3.65-.537 4.567-1.61.919-1.073 1.378-2.634 1.378-4.683h-3.828c0 1.276-.155 2.204-.464 2.784-.31.58-.802.87-1.479.87-.445 0-.807-.102-1.087-.304-.28-.204-.498-.527-.653-.972-.155-.445-.261-1.01-.319-1.697a30.064 30.064 0 0 1-.087-2.479c0-.909.029-1.697.087-2.364.058-.667.164-1.218.319-1.652.155-.436.387-.764.696-.986.31-.223.706-.334 1.189-.334.387 0 .696.092.928.276.232.183.41.425.537.724.125.3.212.634.26 1.001.049.367.073.744.073 1.131zM100.755 30.173V32h3.828V16.398h-4.002v10.353c0 1.72-.706 2.581-2.117 2.581-.6 0-1.034-.16-1.305-.479-.27-.319-.406-.884-.406-1.696V16.398h-4.002v11.571c0 1.566.343 2.682 1.03 3.35.686.667 1.667 1 2.943 1 .87 0 1.643-.164 2.32-.493.677-.329 1.228-.88 1.653-1.653h.058zM107.096 11.062v3.422h4.002v-3.422h-4.002zm0 5.336V32h4.002V16.398h-4.002zM114.481 11.932v4.466h-2.03v2.726h2.03v8.932c0 .793.048 1.45.145 1.972.097.522.275.943.536 1.261.261.32.638.532 1.131.639.493.106 1.127.159 1.9.159.464 0 .904-.015 1.32-.044a18.55 18.55 0 0 1 1.29-.043v-2.784c-.135.02-.28.034-.435.044-.155.01-.31.014-.464.014-.58 0-.962-.13-1.146-.392-.183-.26-.275-.7-.275-1.319v-8.439h2.32v-2.726h-2.32v-4.466h-4.002zM126.187 28.926v-6.235h1.798c.464 0 .89.048 1.276.145.387.097.72.266 1 .508.28.241.503.56.667.956.165.397.247.895.247 1.494 0 1.199-.31 2.02-.928 2.465-.619.445-1.43.667-2.436.667h-1.624zm0-9.135v-5.423h1.508c1.044 0 1.808.203 2.291.609.483.406.725 1.102.725 2.088s-.266 1.687-.798 2.102c-.531.416-1.377.624-2.537.624h-1.189zm-4.176-8.497V32h7.047c1.218 0 2.238-.164 3.06-.493.821-.329 1.488-.768 2-1.32a4.718 4.718 0 0 0 1.088-1.928 8.303 8.303 0 0 0 .319-2.32c0-1.392-.338-2.504-1.015-3.335-.677-.831-1.595-1.324-2.755-1.479v-.058c1.044-.29 1.827-.836 2.349-1.639.522-.802.783-1.764.783-2.885 0-.986-.145-1.817-.435-2.494-.29-.677-.696-1.218-1.218-1.624-.522-.406-1.146-.696-1.87-.87a10.117 10.117 0 0 0-2.364-.261h-6.989zM137.719 16.398V32h4.002v-9.367c0-.522.087-.962.261-1.32.174-.357.406-.647.696-.87.29-.222.609-.381.957-.478a3.885 3.885 0 0 1 1.044-.145 13.111 13.111 0 0 1 1.247.058V16.05a4.731 4.731 0 0 0-.725-.058c-.831 0-1.537.227-2.117.681-.58.455-1.073 1.059-1.479 1.813h-.058v-2.088h-3.828zM154.587 22.43h-4.089v-.609c0-.367.034-.735.102-1.102.067-.367.178-.7.333-1 .155-.3.363-.542.624-.726.26-.183.594-.275 1-.275s.74.082 1 .247c.262.164.465.405.61.725.144.318.246.705.304 1.16.058.454.097.98.116 1.58zm-4.089 2.378h7.917v-.899c0-1.199-.077-2.286-.232-3.262-.155-.977-.445-1.808-.87-2.494a4.309 4.309 0 0 0-1.755-1.595c-.744-.377-1.696-.566-2.856-.566-1.353 0-2.436.222-3.248.667-.812.445-1.435 1.044-1.87 1.798-.436.754-.726 1.614-.87 2.581a20.316 20.316 0 0 0-.218 3.016c0 .986.043 1.972.13 2.958.087.986.324 1.875.711 2.668.387.793.986 1.43 1.798 1.914.812.483 1.943.725 3.393.725 1.914 0 3.316-.474 4.205-1.421.89-.947 1.373-2.33 1.45-4.147h-3.596c-.116.986-.329 1.72-.638 2.204-.31.483-.802.725-1.479.725-.367 0-.677-.102-.928-.304a2.193 2.193 0 0 1-.609-.813 4.414 4.414 0 0 1-.333-1.16 8.763 8.763 0 0 1-.102-1.348v-1.247zM167.482 24.199v3.074c0 .425-.077.793-.232 1.102-.155.31-.353.56-.594.754a2.345 2.345 0 0 1-.798.42c-.29.087-.57.131-.841.131-.541 0-.928-.213-1.16-.638-.232-.425-.348-.938-.348-1.537 0-.696.174-1.247.522-1.653.348-.406.928-.696 1.74-.87a5.63 5.63 0 0 0 .841-.276c.31-.125.6-.294.87-.507zm-7.308-3.016h3.596v-.435c0-.619.155-1.112.464-1.479.31-.367.773-.551 1.392-.551.677 0 1.155.17 1.435.508.28.338.421.807.421 1.406 0 .522-.116.918-.348 1.189-.232.27-.648.483-1.247.638l-2.262.609a9.616 9.616 0 0 0-1.784.667 3.876 3.876 0 0 0-1.218.943 3.663 3.663 0 0 0-.71 1.363c-.155.531-.232 1.164-.232 1.899 0 .522.068 1.049.203 1.58.135.532.348 1.01.638 1.436.29.425.677.759 1.16 1 .483.242 1.073.363 1.769.363.967 0 1.755-.12 2.364-.363.608-.241 1.145-.768 1.609-1.58h.058c.058.27.12.546.189.826.067.28.169.547.304.798h3.828a5.971 5.971 0 0 1-.392-1.305c-.067-.406-.101-.976-.101-1.711v-8.207c0-.696-.072-1.339-.218-1.928a3.308 3.308 0 0 0-.826-1.523c-.406-.425-.976-.754-1.711-.986-.735-.232-1.701-.348-2.9-.348-.754 0-1.465.082-2.131.247a4.662 4.662 0 0 0-1.74.811c-.493.378-.885.87-1.175 1.48-.29.608-.435 1.367-.435 2.276v.377zM181.856 30.347V32h3.828V11.294h-4.002v6.554h-.058c-.425-.619-.904-1.083-1.436-1.392-.531-.31-1.174-.464-1.928-.464-1.643 0-2.852.643-3.625 1.928-.773 1.286-1.16 3.379-1.16 6.279s.387 4.978 1.16 6.235c.773 1.257 1.982 1.885 3.625 1.885.812 0 1.493-.145 2.045-.435.55-.29 1.048-.802 1.493-1.537h.058zm-4.379-6.148c0-1.701.13-2.982.391-3.843.262-.86.827-1.29 1.697-1.29.89 0 1.464.43 1.726 1.29.26.86.391 2.142.391 3.843s-.13 2.982-.391 3.842c-.262.86-.837 1.291-1.726 1.291-.87 0-1.435-.43-1.697-1.29-.26-.86-.391-2.142-.391-3.843z"/>
        </g>
        <path d="M20.61 1.712c4.309-.077 8.608.725 12.706 2.312 2.377.921 4.116 3.07 4.53 5.613a4.921 4.921 0 0 1-.44 2.997l-.483.978c-.17.347-.261.736-.261 1.124v20.768c0 1.238-.497 2.36-1.299 3.173A4.41 4.41 0 0 1 32.214 40H6.702a4.41 4.41 0 0 1-3.15-1.323 4.507 4.507 0 0 1-1.298-3.173V14.736c0-.387-.09-.775-.26-1.12l-.482-.98a4.914 4.914 0 0 1-.446-2.988A7.319 7.319 0 0 1 5.68 4c3.634-1.4 7.42-2.15 11.29-2.238.625-.027 1.2-.053 2.025-.05z" stroke="#FFF" stroke-width="2" fill="#FF6C00"/>
        <path d="M22.339 7.886 12 22.085h6.242l-2.146 11.617 10.885-14.199H20.74z" fill="#FFF" fill-rule="nonzero"/>
    </g>
</svg>
