<svg class="lds-spinner" width="20px"  height="20px"  xmlns="http://www.w3.org/2000/svg" xmlns:xlink="http://www.w3.org/1999/xlink" viewBox="0 0 100 100" preserveAspectRatio="xMidYMid" style="background: none;"><g transform="rotate(0 50 50)">
  <rect x="45" y="-1.5" rx="9" ry="-0.3" width="10" height="25" fill="38414A">
    <animate attributeName="opacity" values="1;0" keyTimes="0;1" dur="0.6s" begin="-0.5399999999999999s" repeatCount="indefinite"></animate>
  </rect>
</g><g transform="rotate(36 50 50)">
  <rect x="45" y="-1.5" rx="9" ry="-0.3" width="10" height="25" fill="38414A">
    <animate attributeName="opacity" values="1;0" keyTimes="0;1" dur="0.6s" begin="-0.48s" repeatCount="indefinite"></animate>
  </rect>
</g><g transform="rotate(72 50 50)">
  <rect x="45" y="-1.5" rx="9" ry="-0.3" width="10" height="25" fill="38414A">
    <animate attributeName="opacity" values="1;0" keyTimes="0;1" dur="0.6s" begin="-0.42000000000000004s" repeatCount="indefinite"></animate>
  </rect>
</g><g transform="rotate(108 50 50)">
  <rect x="45" y="-1.5" rx="9" ry="-0.3" width="10" height="25" fill="38414A">
    <animate attributeName="opacity" values="1;0" keyTimes="0;1" dur="0.6s" begin="-0.36s" repeatCount="indefinite"></animate>
  </rect>
</g><g transform="rotate(144 50 50)">
  <rect x="45" y="-1.5" rx="9" ry="-0.3" width="10" height="25" fill="38414A">
    <animate attributeName="opacity" values="1;0" keyTimes="0;1" dur="0.6s" begin="-0.3s" repeatCount="indefinite"></animate>
  </rect>
</g><g transform="rotate(180 50 50)">
  <rect x="45" y="-1.5" rx="9" ry="-0.3" width="10" height="25" fill="38414A">
    <animate attributeName="opacity" values="1;0" keyTimes="0;1" dur="0.6s" begin="-0.24s" repeatCount="indefinite"></animate>
  </rect>
</g><g transform="rotate(216 50 50)">
  <rect x="45" y="-1.5" rx="9" ry="-0.3" width="10" height="25" fill="38414A">
    <animate attributeName="opacity" values="1;0" keyTimes="0;1" dur="0.6s" begin="-0.18s" repeatCount="indefinite"></animate>
  </rect>
</g><g transform="rotate(252 50 50)">
  <rect x="45" y="-1.5" rx="9" ry="-0.3" width="10" height="25" fill="38414A">
    <animate attributeName="opacity" values="1;0" keyTimes="0;1" dur="0.6s" begin="-0.12s" repeatCount="indefinite"></animate>
  </rect>
</g><g transform="rotate(288 50 50)">
  <rect x="45" y="-1.5" rx="9" ry="-0.3" width="10" height="25" fill="38414A">
    <animate attributeName="opacity" values="1;0" keyTimes="0;1" dur="0.6s" begin="-0.06s" repeatCount="indefinite"></animate>
  </rect>
</g><g transform="rotate(324 50 50)">
  <rect x="45" y="-1.5" rx="9" ry="-0.3" width="10" height="25" fill="38414A">
    <animate attributeName="opacity" values="1;0" keyTimes="0;1" dur="0.6s" begin="0s" repeatCount="indefinite"></animate>
  </rect>
</g></svg>