<svg xmlns="http://www.w3.org/2000/svg" width="16" height="24" viewBox="0 0 16 24">
    <path fill="#FE7A38" fill-rule="evenodd" d="M7.826 0C3.51 0 0 3.51 0 7.826c0 2.64 1.007 4.209 1.957 5.299.474.546.933.986 1.239 1.386.305.4.456.721.456 1.141v5.218c0 .858.707 1.565 1.565 1.565h.604A2.08 2.08 0 0 0 7.826 24a2.08 2.08 0 0 0 2.006-1.565h.603c.858 0 1.565-.707 1.565-1.565v-5.218c0-.589.173-.996.473-1.418.3-.422.75-.842 1.223-1.354.943-1.025 1.956-2.464 1.956-5.054C15.652 3.51 12.142 0 7.826 0zm0 1.043a6.775 6.775 0 0 1 6.783 6.783c0 2.332-.813 3.398-1.696 4.353-.44.48-.903.911-1.288 1.451s-.668 1.207-.668 2.022v2.609H4.696v-2.609c0-.703-.306-1.284-.685-1.777-.38-.493-.834-.933-1.272-1.435-.876-1.005-1.696-2.227-1.696-4.614a6.775 6.775 0 0 1 6.783-6.783zM5.69 7.81a.61.61 0 0 0-.065.016.518.518 0 0 0-.408.367.524.524 0 0 0 .147.53l1.94 1.94v6.554h1.044v-6.554l1.94-1.94a.529.529 0 0 0 0-.75.529.529 0 0 0-.75 0L7.826 9.685 6.114 7.973a.524.524 0 0 0-.424-.163zm-.994 11.494h6.26v1.566a.52.52 0 0 1-.521.521H6.359a.53.53 0 0 0-.212 0h-.93a.52.52 0 0 1-.521-.521v-1.566zm2.233 3.13h1.794c-.18.313-.508.523-.897.523-.39 0-.717-.21-.897-.522z"/>
</svg>
