<svg width="32" height="26" viewBox="0 0 32 26" xmlns="http://www.w3.org/2000/svg">
    <g fill="none" fill-rule="evenodd">
        <path d="M1 7.576h30v15.909c0 .837-.671 1.515-1.5 1.515h-27c-.829 0-1.5-.678-1.5-1.515V7.575z" stroke="#FF6C02" stroke-width="1.115" fill="#FF6C02"/>
        <path d="M31 7.576V5.173c0-.402-.158-.787-.44-1.071l-1.37-1.385a1.493 1.493 0 0 0-1.061-.444H3.871c-.397 0-.78.16-1.06.444L1.44 4.102c-.282.284-.44.67-.44 1.07v2.404h30z" fill="#CC5601" fill-rule="nonzero"/>
        <path d="M20.875 0h-9.75C10.504 0 10 .51 10 1.136v1.137h12V1.136C22 .51 21.496 0 20.875 0zM24.25 4.06h1.5c.414 0 .75.34.75.758v3.03a.754.754 0 0 1-.75.758h-1.5a.754.754 0 0 1-.75-.758v-3.03c0-.418.336-.757.75-.757zM6.25 4.06h1.5c.414 0 .75.34.75.758v3.03a.754.754 0 0 1-.75.758h-1.5a.754.754 0 0 1-.75-.758v-3.03c0-.418.336-.757.75-.757z" fill="#FFF" fill-rule="nonzero"/>
        <path fill="#F7F8FA" fill-rule="nonzero" d="M17.658 9.848 13 16.932h2.813l-.967 5.795 4.904-7.083h-2.813z"/>
    </g>
</svg>
