<svg xmlns="http://www.w3.org/2000/svg" width="21" height="20" viewBox="0 0 21 20">
    <path fill="#25343F" fill-rule="nonzero" d="M10.103 0c-.67.007-1.27.418-1.518 1.04L1.968 17.582l-.023.062h-.646a1.103 1.103 0 1 0 0 2.206h1.848c.225.047.459.047.684 0H5.71a1.103 1.103 0 1 0 0-2.206h-.205l1.325-3.308h6.582l1.324 3.308h-.204a1.103 1.103 0 1 0 0 2.206h1.867c.229.049.465.049.694 0h1.85a1.103 1.103 0 1 0 0-2.206h-.646a1.654 1.654 0 0 0-.024-.062L11.656 1.04A1.655 1.655 0 0 0 10.103 0zm.018 6.108l2.408 6.022H7.713l2.408-6.022z"/>
</svg>
