<?xml version="1.0" encoding="UTF-8"?>
<svg xmlns="http://www.w3.org/2000/svg" width="33" height="31" viewBox="0 0 33 31">
  <defs>
    <linearGradient id="rmztv8a9oa" x1="112.326%" x2="-5.411%" y1="49.998%" y2="49.998%">
      <stop offset="8.7%" stop-color="#DFE9F2"></stop>
      <stop offset="29.1%" stop-color="#D6E0E9"></stop>
      <stop offset="66.2%" stop-color="#BFC8D1"></stop>
      <stop offset="74.1%" stop-color="#889097"></stop>
    </linearGradient>
    <linearGradient id="cmcbsyz4pb" x1="-.017%" x2="100%" y1="50%" y2="50%">
      <stop offset="2.4%" stop-color="#DFE9F2"></stop>
      <stop offset="32.7%" stop-color="#D6E0E9"></stop>
      <stop offset="79.8%" stop-color="#BFC8D1"></stop>
      <stop offset="94.1%" stop-color="#889097"></stop>
    </linearGradient>
    <linearGradient id="digjgwbaac" x1="-.002%" x2="100%" y1="50.007%" y2="50.007%">
      <stop offset="3.8%" stop-color="#DFE9F2"></stop>
      <stop offset="48.8%" stop-color="#D6E0E9"></stop>
      <stop offset="80.9%" stop-color="#BFC8D1"></stop>
      <stop offset="95.6%" stop-color="#889097"></stop>
    </linearGradient>
    <linearGradient id="d1tc0r2vjd" x1="43.342%" x2="57.115%" y1=".016%" y2="103.405%">
      <stop offset="0%" stop-color="#F44F5A"></stop>
      <stop offset="44.3%" stop-color="#EE3D4A"></stop>
      <stop offset="100%" stop-color="#E52030"></stop>
    </linearGradient>
  </defs>
  <g fill="none" fill-rule="evenodd">
    <g fill-rule="nonzero">
      <g transform="translate(-1030 -390) translate(1030 390)">
        <path fill="url(#rmztv8a9oa)" d="M20.804 3.263L33 15.5c-2.55.908-5.392.275-7.318-1.632l-8.13-8.157 2.439-2.448h.813z"></path>
        <path fill="url(#cmcbsyz4pb)" d="M11.047 15.5L1.05 5.472C.82 5.238.75 4.887.875 4.582c.126-.304.422-.503.751-.503h2.916V5.71h1.626v1.631h1.626v1.632H9.42v1.631h1.627V15.5z"></path>
        <path fill="url(#digjgwbaac)" d="M7.885 16.59c.241.495.151 1.09-.225 1.491-.295.29-.692.45-1.104.444-.412-.004-.806-.173-1.093-.47l-1.017-1.02c-.2-.145-.33-.37-.358-.616-.027-.247.051-.494.216-.68l.892-.895c.1-.1.14-.245.109-.383-.031-.138-.131-.25-.264-.297-1.463-.513-3.09-.141-4.187.957l-.616.618c-.152.153-.238.36-.238.577 0 .216.086.424.238.577l10.809 10.844v-8.158l-3.05-3.059c-.021-.022-.056-.026-.083-.01-.027.016-.039.05-.03.08z"></path>
        <rect width="11.383" height="31" x="10.233" fill="url(#d1tc0r2vjd)" rx="5.692"></rect>
        <path fill="#000" d="M16.332 22.842c.224 0 .406.183.406.408v1.224h1.22c.224 0 .406.182.406.408v.815c0 .226-.182.408-.406.408h-1.22v1.224c0 .225-.182.408-.406.408h-.813c-.225 0-.407-.183-.407-.408v-1.224h-1.22c-.224 0-.406-.182-.406-.408v-.815c0-.226.182-.408.406-.408h1.22V23.25c0-.225.182-.408.407-.408h.813m0-.816h-.813c-.674.001-1.22.548-1.22 1.224v.408h-.407c-.673 0-1.219.548-1.22 1.224v.815c.001.676.547 1.223 1.22 1.224h.407v.408c0 .675.546 1.223 1.22 1.224h.813c.673-.001 1.218-.549 1.22-1.224v-.408h.406c.673 0 1.219-.548 1.22-1.224v-.815c-.001-.676-.547-1.223-1.22-1.224h-.407v-.408c0-.676-.546-1.223-1.22-1.224z" opacity=".05"></path>
        <path fill="#000" d="M16.332 22.842c.224 0 .406.183.406.408v1.224h1.22c.224 0 .406.182.406.408v.815c0 .226-.182.408-.406.408h-1.22v1.224c0 .225-.182.408-.406.408h-.813c-.225 0-.407-.183-.407-.408v-1.224h-1.22c-.224 0-.406-.182-.406-.408v-.815c0-.226.182-.408.406-.408h1.22V23.25c0-.225.182-.408.407-.408h.813m0-.408h-.813c-.45 0-.813.366-.814.816v.816h-.813c-.449 0-.812.365-.813.816v.815c0 .45.364.816.813.816h.813v.816c0 .45.365.815.814.816h.813c.448 0 .812-.366.813-.816v-.816h.813c.449 0 .812-.365.813-.816v-.815c0-.45-.364-.816-.813-.816h-.813v-.816c0-.45-.365-.815-.813-.816z" opacity=".07"></path>
        <path fill="#FFF" d="M17.958 24.474h-1.22V23.25c0-.225-.182-.408-.406-.408h-.813c-.225 0-.407.183-.407.408v1.224h-1.22c-.224 0-.406.182-.406.408v.815c0 .226.182.408.406.408h1.22v1.224c0 .225.182.408.407.408h.813c.224 0 .406-.183.406-.408v-1.224h1.22c.224 0 .406-.182.406-.408v-.815c0-.226-.182-.408-.406-.408z"></path>
      </g>
    </g>
  </g>
</svg>
