<svg xmlns="http://www.w3.org/2000/svg" width="48" height="38" viewBox="0 0 48 38">
    <g fill="none" fill-rule="evenodd">
        <path fill="#37474F" d="M9 12h30v13H9z"/>
        <ellipse cx="24" cy="25" fill="#37474F" rx="15" ry="6"/>
        <path fill="#78909C" d="M23.1.225l-22.5 9.9c-.8.4-.8 1.5 0 1.9l22.5 9.9c.6.2 1.2.2 1.8 0l22.5-9.9c.8-.4.8-1.5 0-1.9L24.9.225c-.6-.3-1.2-.3-1.8 0z"/>
        <path fill="#37474F" d="M43.215 12.415l-20-3.4c-.5-.1-1.1.3-1.2.8-.1.5.3 1.1.8 1.2l19.2 3.2v14.8c0 .6.4 1 1 1s1-.4 1-1v-15.6c0-.5-.4-.9-.8-1z"/>
        <circle cx="43" cy="29" r="2" fill="#37474F"/>
        <path fill="#37474F" d="M46 32c0 1.7-3 6-3 6s-3-4.3-3-6c0-1.7 1.3-3 3-3s3 1.3 3 3z"/>
    </g>
</svg>
