<svg width="9" height="9" viewBox="0 0 9 9" fill="none" xmlns="http://www.w3.org/2000/svg">
<g opacity="0.7" clip-path="url(#clip0_2024_694)">
<path d="M6.01312 0C5.91398 0.00914063 5.84086 0.0977344 5.85 0.196875C5.85914 0.296016 5.94773 0.369141 6.04687 0.36H8.38125L4.62375 4.12313C4.57031 4.16672 4.5457 4.23633 4.56117 4.30383C4.57664 4.37063 4.62937 4.42336 4.69617 4.43883C4.76367 4.4543 4.83328 4.42969 4.87687 4.37625L8.64 0.61875V2.95312C8.6393 3.01781 8.67305 3.07828 8.7293 3.11133C8.78555 3.14367 8.85445 3.14367 8.9107 3.11133C8.96695 3.07828 9.0007 3.01781 9 2.95312V0H6.04687C6.04125 0 6.03562 0 6.03 0C6.02437 0 6.01875 0 6.01312 0ZM0.36 1.8C0.265781 1.8 0.169453 1.83305 0.10125 1.90125C0.0330469 1.96945 0 2.06578 0 2.16V8.64C0 8.73422 0.0330469 8.83055 0.10125 8.89875C0.169453 8.96695 0.265781 9 0.36 9H6.84C6.93422 9 7.03055 8.96695 7.09875 8.89875C7.16695 8.83055 7.2 8.73422 7.2 8.64V3.24C7.2007 3.17531 7.16695 3.11484 7.1107 3.0818C7.05445 3.04945 6.98555 3.04945 6.9293 3.0818C6.87305 3.11484 6.8393 3.17531 6.84 3.24V8.64H0.36V2.16H5.76C5.82469 2.1607 5.88516 2.12695 5.9182 2.0707C5.95055 2.01445 5.95055 1.94555 5.9182 1.8893C5.88516 1.83305 5.82469 1.7993 5.76 1.8H0.36Z" fill="black"/>
</g>
<defs>
<clipPath id="clip0_2024_694">
<rect width="9" height="9" fill="white"/>
</clipPath>
</defs>
</svg>
