<?xml version="1.0" encoding="UTF-8"?>
<svg width="13px" height="13px" viewBox="0 0 13 13" version="1.1" xmlns="http://www.w3.org/2000/svg" xmlns:xlink="http://www.w3.org/1999/xlink">
    <!-- Generator: Sketch 51.3 (57544) - http://www.bohemiancoding.com/sketch -->
    <title>icons8-like_it copy 3</title>
    <desc>Created with Sketch.</desc>
    <defs></defs>
    <g id="Comment-System" stroke="none" stroke-width="1" fill="none" fill-rule="evenodd">
        <g id="icons8-like_it-copy-3" fill="#FF7938" fill-rule="nonzero">
            <path d="M5.46071891,0.00274708552 C5.19548399,0.0183687837 4.99265729,0.237072559 4.99265729,0.502641428 L4.99265729,1.37745653 C4.99265729,2.58032729 4.66501415,3.45904757 4.39977923,4.00190183 L0,4.00190183 L0,13 L10.6718049,13 C11.3855992,13 12.0135816,12.5118222 12.1696021,11.8166561 C12.1696021,11.8049406 12.1735024,11.7893189 12.1735024,11.7776024 L12.9770087,5.77496508 L12.9653069,5.82183017 C13.1720339,4.88843345 12.4270365,4.00190183 11.47141,4.00190183 L7.98825166,4.00190183 L7.98825166,2.25227163 C7.98825166,1.13532071 7.30176128,0.463587683 6.67767912,0.213640511 C6.05359696,-0.0402128345 5.46071891,0.00274708552 5.46071891,0.00274708552 Z M5.99118874,1.08064426 C6.1238067,1.10017114 6.15501081,1.07673909 6.30322982,1.13532071 C6.67767912,1.29153769 6.9897202,1.49461976 6.9897202,2.25227163 L6.9897202,4.50179617 C6.9897202,4.77908156 7.21204922,5.00169051 7.48898593,5.00169051 L11.47141,5.00169051 C11.8302572,5.00169051 12.0603878,5.28678626 11.9940793,5.6031264 C11.990179,5.61874809 11.9862778,5.63046362 11.9823775,5.64608532 L11.190573,11.6057637 C11.1398666,11.8283726 10.9331396,12.0002113 10.6718049,12.0002113 L4.99265729,12.0002113 L4.99265729,5.02121739 C5.21888757,4.67363485 5.99118874,3.34188533 5.99118874,1.37745653 L5.99118874,1.08064426 Z M0.998531457,5.00169051 L3.99412583,5.00169051 L3.99412583,12.0002113 L0.998531457,12.0002113 L0.998531457,5.00169051 Z M2.49632864,10.0006339 C2.21939193,10.0006339 1.99706291,10.2232429 1.99706291,10.5005283 C1.99706291,10.7778137 2.21939193,11.0004226 2.49632864,11.0004226 C2.77326535,11.0004226 2.99559437,10.7778137 2.99559437,10.5005283 C2.99559437,10.2232429 2.77326535,10.0006339 2.49632864,10.0006339 Z" id="Shape"></path>
        </g>
    </g>
</svg>