<svg xmlns="http://www.w3.org/2000/svg" width="13" height="13" viewBox="0 0 13 13">
    <path fill="#333" fill-rule="nonzero" d="M5.469 0A.498.498 0 0 0 5 .5v.875A5.887 5.887 0 0 1 4.406 4H0v9h10.688c.714 0 1.343-.488 1.5-1.184l.003-.039.805-6.004-.012.047c.207-.933-.539-1.82-1.496-1.82H8V2.25C8 1.133 7.312.46 6.687.21 6.063-.042 5.47 0 5.47 0zM6 1.078c.133.02.164-.004.313.055.375.156.687.36.687 1.117V4.5c0 .277.223.5.5.5h3.988c.36 0 .59.285.524.602L12 5.645l-.793 5.96a.522.522 0 0 1-.52.395H5V5.02c.227-.348 1-1.68 1-3.645v-.297zM1 5h3v7H1V5zm1.5 5c-.277 0-.5.223-.5.5s.223.5.5.5.5-.223.5-.5-.223-.5-.5-.5z" opacity=".5"/>
</svg>
