<?xml version="1.0" encoding="UTF-8"?>
<svg width="18px" height="12px" viewBox="0 0 18 12" version="1.1" xmlns="http://www.w3.org/2000/svg" xmlns:xlink="http://www.w3.org/1999/xlink">
    <!-- Generator: Sketch 51.2 (57519) - http://www.bohemiancoding.com/sketch -->
    <title>Shape</title>
    <desc>Created with Sketch.</desc>
    <defs></defs>
    <g id="Page-1" stroke="none" stroke-width="1" fill="none" fill-rule="evenodd">
        <g id="CB-Homepage" transform="translate(-774.000000, -251.000000)" fill="#ff7a38" fill-rule="nonzero">
            <g id="Group-7-Copy" transform="translate(623.000000, 233.000000)">
                <g id="icons8-right" transform="translate(151.000000, 18.604167)">
                    <path d="M11.421875,0.0420735686 C11.234375,0.0718755669 11.0839845,0.194590364 11.03125,0.357625326 C10.9785155,0.522413691 11.033203,0.697720223 11.171875,0.81342231 L15.765625,4.93663195 L1,4.93663195 C0.984375,4.93663195 0.96875,4.93663195 0.953125,4.93663195 C0.6777345,4.94890351 0.4628905,5.15927135 0.4765625,5.40645345 C0.4902345,5.65363555 0.7246095,5.84647296 1,5.83420139 L15.765625,5.83420139 L11.171875,9.95741103 C11.0234375,10.0661013 10.955078,10.2396544 10.998047,10.4079487 C11.0410155,10.57449 11.1875,10.70597 11.373047,10.7445372 C11.560547,10.7831049 11.7539065,10.7217475 11.875,10.5885145 L17.328125,5.70798069 L17.671875,5.38541667 L17.328125,5.06285265 L11.875,0.182318794 C11.7714845,0.0823941832 11.621094,0.0315554011 11.46875,0.0420735686 C11.453125,0.0420735686 11.4375,0.0420735686 11.421875,0.0420735686 Z" id="Shape"></path>
                </g>
            </g>
        </g>
    </g>
</svg>