<svg xmlns="http://www.w3.org/2000/svg" width="16" height="15" viewBox="0 0 16 15">
    <path fill="#000" fill-rule="nonzero" d="M7.594.313A.666.666 0 0 0 7 .99v7.906L5.802 7.698a.666.666 0 1 0-.937.948l2.802 2.802 2.802-2.802a.668.668 0 1 0-.938-.948L8.333 8.896V.99a.667.667 0 0 0-.677-.677.5.5 0 0 0-.062 0zM0 11.332v1.896c0 .492.15.969.5 1.302.35.334.832.469 1.313.469H13.53c.487 0 .969-.138 1.313-.48.344-.34.49-.834.49-1.322v-1.865H14v1.865c0 .245-.052.335-.094.375-.041.04-.129.094-.375.094H1.812c-.252 0-.345-.056-.385-.094-.04-.038-.094-.102-.094-.344v-1.896H0z"/>
</svg>
