<svg xmlns="http://www.w3.org/2000/svg" width="85" height="73" viewBox="0 0 85 73">
    <g fill="none" fill-rule="evenodd">
        <path fill="#38414A" fill-opacity="0" d="M-11 39.554H.209v27.785H-11z"/>
        <path fill="#FF7A38" fill-rule="nonzero" d="M8.337 12.84l.683 2.233c3.073 1.362 20.71 9.198 22.106 9.818 1.436.638 2.596.386 3.028.254.432-.132 1.534-.572 2.367-1.904C37.362 21.9 48.2 4.587 49.36 2.741L48.676.506 8.337 12.839zm1.335 4.366l6.162 20.154 9.27-13.318c-5.002-2.217-12.135-5.374-15.432-6.836zM50.011 4.874c-1.81 2.885-6.023 9.594-8.972 14.297l15.126 5.831L50.01 4.874zm-23.34 19.87L16.454 39.392l.721 2.36 40.34-12.334-.73-2.384-16.653-6.408c-1.148 1.834-1.973 3.16-2.184 3.495-1.138 1.813-2.693 2.442-3.304 2.63-.612.186-2.252.537-4.21-.333-.358-.158-1.783-.796-3.765-1.676z"/>
        <g transform="translate(.209 22.432)">
            <path fill="#424242" fill-rule="nonzero" d="M69.936 29.03H2.119C1.06 29.03 0 30.062 0 31.094v12.384c0 1.032 1.06 2.064 2.12 2.064h4.238v2.064c0 1.032 1.06 2.064 2.12 2.064h4.238c1.06 0 2.119-1.032 2.119-2.064v-2.064H57.22v2.064c0 1.032 1.06 2.064 2.12 2.064h4.238c1.06 0 2.12-1.032 2.12-2.064v-2.064h4.238c1.06 0 2.119-1.032 2.119-2.064V31.094c0-1.032-1.06-2.064-2.12-2.064z"/>
            <path stroke="#9FA8DA" stroke-width="1.589" d="M68.853 12.359h6.404"/>
            <path fill="#DDE7EB" fill-rule="nonzero" d="M0 37.762V19.106C0 8.742 8.689.451 19.073.451h33.909c10.596 0 19.073 8.291 19.073 18.655v18.656H0z"/>
            <path fill="#B0BEC5" fill-rule="nonzero" d="M84.064 17.122H73.656V8.389h6.245c2.29 0 4.163 1.965 4.163 4.367v4.366z"/>
            <ellipse cx="62.448" cy="29.823" fill="#FF1744" fill-rule="nonzero" rx="3.202" ry="3.175"/>
        </g>
    </g>
</svg>
