<svg xmlns="http://www.w3.org/2000/svg" width="119" height="101"><g fill="none" fill-rule="evenodd"><path d="M-15 55.267H.715V94.09H-15z"/><g transform="translate(.715 31.344)"><path fill="#424242" fill-rule="nonzero" d="M98.054 40.562H2.971C1.486 40.562 0 42.004 0 43.446V60.75c0 1.442 1.486 2.884 2.971 2.884h5.943v2.884c0 1.442 1.486 2.884 2.971 2.884h5.943c1.486 0 2.971-1.442 2.971-2.884v-2.884h59.427v2.884c0 1.442 1.486 2.884 2.972 2.884h5.942c1.486 0 2.972-1.442 2.972-2.884v-2.884h5.942c1.486 0 2.972-1.442 2.972-2.884V43.446c0-1.442-1.486-2.884-2.972-2.884z"/><path stroke="#9FA8DA" stroke-width="2.225" d="M96.536 41.022h8.98"/><path fill="#DDE7EB" fill-rule="nonzero" d="M0 52.763V26.697C0 12.215 12.182.63 26.742.63h47.542c14.856 0 26.742 11.585 26.742 26.067v26.066H0z"/><path fill="#B0BEC5" fill-rule="nonzero" d="M117.863 47.677h-14.592V35.475h8.755c3.21 0 5.837 2.746 5.837 6.101v6.1z"/><ellipse cx="87.555" cy="41.671" fill="#FF1744" fill-rule="nonzero" rx="4.49" ry="4.437"/></g><path fill="#BCAAA4" fill-rule="nonzero" d="M36.185 26.548l-4.932-5.689c3.035-2.655 3.035-3.034 1.138-5.689C30.494 12.515 26.7 6.827 35.047 0l4.932 5.689c-3.035 2.275-2.656 2.655-1.138 4.93 1.518 3.034 5.312 8.723-2.656 15.929zm16.426-15.55c-1.871-2.654-1.871-2.654 1.124-4.93L48.868 0c-8.236 6.827-4.118 12.515-2.62 15.17 1.871 2.655 1.871 3.034-1.124 5.69l4.867 5.688c8.236-7.206 4.492-12.895 2.62-15.55zm15.423 0c-1.872-2.654-1.872-2.654 1.123-4.93L64.29 0c-8.236 6.827-4.118 12.515-2.62 15.17 1.872 2.655 1.872 3.034-1.123 5.69l4.867 5.688c8.236-7.206 4.492-12.895 2.62-15.55z" opacity=".4"/></g></svg>