<svg width="105" height="86" xmlns="http://www.w3.org/2000/svg"><g fill="none" fill-rule="evenodd"><path d="M69.77 5.143C67.153 3.6 60.091 0 41 0v36h28.77V15.429c2.876 0 5.23-1.543 5.23-4.372 0-2.828-2.615-4.371-5.23-5.914z" fill="#EE6B2E" fill-rule="nonzero"/><path d="M87.353 60H2.647C1.324 60 0 61.3 0 62.6v15.6c0 1.3 1.324 2.6 2.647 2.6h5.294v2.6c0 1.3 1.324 2.6 2.647 2.6h5.294c1.324 0 2.647-1.3 2.647-2.6v-2.6h52.942v2.6c0 1.3 1.323 2.6 2.647 2.6h5.294c1.323 0 2.647-1.3 2.647-2.6v-2.6h5.294c1.323 0 2.647-1.3 2.647-2.6V62.6c0-1.3-1.324-2.6-2.647-2.6z" fill="#546E7A" fill-rule="nonzero"/><path d="M60.7 5.143C58.05 3.6 50.1 0 39.5 0S20.95 3.6 18.3 5.143C15.65 6.686 13 8.229 13 11.057c0 2.829 2.385 4.372 5.3 4.372V36h42.4V15.429c2.915 0 5.3-1.543 5.3-4.372 0-2.828-2.65-4.371-5.3-5.914z" fill="#FF7A38" fill-rule="nonzero"/><path d="M86 39h8" stroke="#9FA8DA" stroke-width="2"/><path d="M45.339 8L35 22.198h6.242l-2.146 11.617 10.885-14.198H43.74z" fill="#FFF" fill-rule="nonzero"/><path d="M0 71V47.5C0 34.444 10.853 24 23.824 24h42.352C79.412 24 90 34.444 90 47.5V71H0z" fill="#CFD8DC" fill-rule="nonzero"/><path d="M105 45H92V34h7.8c2.86 0 5.2 2.475 5.2 5.5V45z" fill="#B0BEC5" fill-rule="nonzero"/><circle fill="#F0FAFF" fill-rule="nonzero" cx="78" cy="61" r="4"/></g></svg>